<?xml version="1.0" encoding="UTF-8"?>
<svg id="Camada_2" data-name="Camada 2" xmlns="http://www.w3.org/2000/svg" viewBox="0 0 567.62 159.03">
  <defs>
    <style>
      .cls-1 {
        fill: #fff;
      }
    </style>
  </defs>
  <g id="svg8">
    <g>
      <g>
        <path class="cls-1" d="M185.74,145.3c1.58.91,3.96,1.7,6.45,1.7,3.13,0,4.87-1.46,4.87-3.64,0-2.02-1.35-3.21-4.75-4.43-4.39-1.58-7.2-3.92-7.2-7.76,0-4.35,3.64-7.68,9.42-7.68,2.89,0,5.03.63,6.41,1.35l-1.19,3.92c-.95-.51-2.81-1.27-5.3-1.27-3.09,0-4.43,1.66-4.43,3.21,0,2.06,1.54,3.01,5.11,4.39,4.63,1.74,6.89,4.08,6.89,7.92,0,4.27-3.25,8-10.13,8-2.81,0-5.74-.79-7.2-1.66l1.07-4.04Z"/>
        <path class="cls-1" d="M226.03,138.76h-10.05v7.84h11.24v4h-16.11v-26.68h15.52v4h-10.65v6.89h10.05v3.96Z"/>
        <path class="cls-1" d="M236.21,124.28c1.82-.32,4.55-.55,7.36-.55,3.84,0,6.45.63,8.23,2.14,1.46,1.23,2.3,3.09,2.3,5.34,0,3.44-2.34,5.78-4.83,6.69v.12c1.9.71,3.05,2.57,3.72,5.15.83,3.33,1.54,6.41,2.1,7.44h-5.03c-.4-.79-1.03-2.97-1.78-6.29-.75-3.48-2.02-4.59-4.79-4.67h-2.45v10.96h-4.83v-26.32ZM241.04,136.07h2.89c3.29,0,5.34-1.74,5.34-4.39,0-2.93-2.06-4.27-5.22-4.27-1.54,0-2.53.12-3.01.24v8.43Z"/>
        <path class="cls-1" d="M269.7,150.6l-8.63-26.68h5.3l3.64,12.11c1.03,3.37,1.9,6.49,2.61,9.74h.08c.71-3.17,1.66-6.41,2.73-9.66l3.88-12.19h5.19l-9.22,26.68h-5.58Z"/>
        <path class="cls-1" d="M296.97,123.92v26.68h-4.87v-26.68h4.87Z"/>
        <path class="cls-1" d="M326.38,149.81c-1.11.59-3.56,1.15-6.65,1.19l-.75,1.46c1.5.32,2.81,1.35,2.81,3.09,0,2.57-2.26,3.48-4.39,3.48-1.15,0-2.34-.28-3.17-.75l.71-2.14c.59.32,1.42.55,2.22.55.83,0,1.5-.32,1.5-1.07,0-.91-1.07-1.38-3.09-1.58l1.54-3.21c-7.05-.91-11.24-5.94-11.24-13.26,0-8.79,6.1-14.09,14.25-14.09,3.21,0,5.5.67,6.49,1.19l-1.07,3.88c-1.27-.55-3.01-1.03-5.22-1.03-5.42,0-9.34,3.4-9.34,9.82,0,5.86,3.44,9.62,9.3,9.62,1.98,0,4.04-.4,5.3-.99l.79,3.84Z"/>
        <path class="cls-1" d="M357.89,136.98c0,8.95-5.42,14.05-12.78,14.05s-12.27-5.74-12.27-13.58,5.15-13.97,12.67-13.97,12.39,5.9,12.39,13.5ZM337.98,137.38c0,5.42,2.73,9.74,7.4,9.74s7.36-4.35,7.36-9.93c0-5.03-2.49-9.78-7.36-9.78s-7.4,4.47-7.4,9.97Z"/>
        <path class="cls-1" d="M366.68,145.3c1.58.91,3.96,1.7,6.45,1.7,3.13,0,4.87-1.46,4.87-3.64,0-2.02-1.35-3.21-4.75-4.43-4.39-1.58-7.2-3.92-7.2-7.76,0-4.35,3.64-7.68,9.42-7.68,2.89,0,5.03.63,6.41,1.35l-1.19,3.92c-.95-.51-2.81-1.27-5.3-1.27-3.09,0-4.43,1.66-4.43,3.21,0,2.06,1.54,3.01,5.11,4.39,4.63,1.74,6.89,4.08,6.89,7.92,0,4.27-3.25,8-10.13,8-2.81,0-5.74-.79-7.2-1.66l1.07-4.04Z"/>
      </g>
      <g>
        <g id="g4544">
          <path id="path4546" class="cls-1" d="M79.31,71.63v17.05c0,1.37-.26,2.49-.87,3.35-.61.69-1.46,1.04-2.67,1.04s-2.15-.35-2.76-1.04c-.6-.86-.85-1.98-.85-3.35v-19.81s-14.22,2.24-20.84,3.36v15.84c0,6.54,2.42,11.29,7.15,14.29,4.04,2.5,9.72,3.7,17.12,3.7s13.1-1.11,17.06-3.44c4.98-2.92,7.48-7.49,7.48-13.78v-17.21h-20.82ZM185.63,59.06v30.04c0,1.21-.35,2.16-.95,2.93-.61.61-1.47.87-2.67.87-2.41,0-3.61-1.29-3.61-3.88v-29.53c-7.07.35-14.04.77-20.84,1.2v33.57c0,3.29,1.38,6.04,4.21,8.36,2.85,2.33,6.55,3.44,10.94,3.44,3.01,0,5.59-.42,7.75-1.2,2.33-.77,4.05-1.72,5.17-2.84v2.84h20.74v-46.66c-6.97.25-13.94.52-20.74.86ZM148.61,101.25c3.43-2.85,5.25-6.99,5.25-12.41v-27.89c-7.15.52-14.03,1.04-20.83,1.55v26.18c0,1.37-.35,2.49-.96,3.35-.6.69-1.46,1.04-2.66,1.04s-2.16-.35-2.76-1.04c-.61-.86-.86-1.98-.86-3.35v-25.57c-7.06.69-14.03,1.29-20.83,2.07v22.89c0,6.54,2.41,11.29,7.31,14.29,4.14,2.5,9.91,3.7,17.39,3.7,1.56,0,2.93,0,4.31-.08l3.01,5.69h17.22l-5.59-10.42ZM302.2,90.48c-2.5,0-4.4-.34-5.6-1.03-1.64-1.04-2.5-2.76-2.5-5.24v-27.38l-9.99-.1-10.84.1v27.54c0,8.78.95,14.38,3.01,16.88,2.07,2.41,7.57,3.61,16.62,3.61h13.17v-14.38h-3.87ZM363.32,58.29v46.57h20.84v-45.71c-6.89-.35-13.78-.61-20.84-.86ZM338.44,57.42v31.26c0,1.37-.26,2.49-.86,3.35-.6.69-1.55,1.04-2.75,1.04s-2.07-.35-2.68-1.04c-.59-.86-.94-1.98-.94-3.35v-31.42c-6.8-.1-13.77-.26-20.84-.35v31.16c0,6.54,2.51,11.29,7.4,14.29,4.06,2.5,9.91,3.7,17.4,3.7s13-1.11,16.88-3.44c4.81-2.76,7.23-7.4,7.23-13.78v-30.73c-6.88-.26-13.79-.51-20.84-.69ZM416.53,61.12v43.74h20.84v-42.18c-6.8-.52-13.79-1.12-20.84-1.56ZM495.48,69.04v35.82h20.84v-32.72c-6.64-1.11-13.61-2.14-20.84-3.1Z"/>
          <path class="cls-1" d="M465.99,65.44c-5.98-.64-12.07-1.24-18.3-1.82-4.13,3.53-6.11,7.49-6.11,12.06v17.04c0,4.48,1.29,7.84,3.87,10.07,2.59,2.16,6.98,3.27,13.18,3.27,3.01,0,5.49-.15,7.36-.52.48-.11.92-.21,1.34-.33,2.06-.52,3.61-1.72,4.64-3.62v3.27h18.43v-36.49c-7.86-1.06-16.01-2.03-24.41-2.93ZM469.56,89.02c0,1.29-.34,2.24-1.03,3.01-.61.61-1.38.87-2.41.87h-.13c-1.14-.02-2.05-.28-2.72-.87-.59-.77-.85-1.72-.85-3.01v-15.49c0-1.55.43-2.85,1.46-3.88.5-.45,1.2-.9,2.11-1.3.96-.45,2.16-.84,3.57-1.2v21.87Z"/>
          <path class="cls-1" d="M235.65,57.33l-7.75.18c-.86.34-1.81.78-2.76,1.21-9.29,4.47-13.95,10.15-13.95,16.96v17.04c0,4.48,1.29,7.84,3.88,10.07,2.67,2.16,7.06,3.27,13.26,3.27,3.01,0,5.42-.15,7.32-.52.49-.11.94-.21,1.37-.33,2.07-.52,3.62-1.72,4.66-3.62v3.27h18.41v-47.95c-8.26.07-16.4.23-24.44.42ZM239.26,89.02c0,1.29-.34,2.24-1.12,3.01-.52.61-1.37.87-2.32.87h-.17c-1.13-.02-2.02-.29-2.67-.87-.61-.77-.95-1.72-.95-3.01v-15.49c0-1.55.52-2.85,1.55-3.88.46-.46,1.15-.9,2.07-1.31.95-.44,2.17-.83,3.61-1.19v21.87Z"/>
        </g>
        <g id="g4548">
          <rect class="cls-1" x="416.52" width="20.84" height="15.24"/>
          <path class="cls-1" d="M516.31,66.98V0h-20.83v63.17c-1.34-.22-2.69-.45-4.06-.66-.33-.05-.68-.12-1.03-.17v-25.06c0-6.54-2.23-11.37-6.62-14.21-3.71-2.49-9.22-3.79-16.62-3.79s-13.08,1.21-17.22,3.45c-5.07,2.93-7.66,7.49-7.66,13.78v16.96h20.15v-16.79c0-1.39.35-2.42,1.03-3.1.69-.68,1.55-1.12,2.5-1.12,1.2,0,2.14.44,2.75,1.12.6.68.87,1.71.87,3.1v12.56c0,1.71-4.09,4.6-12.15,8.6-6.5-.77-13.2-1.5-20.06-2.18V19.89h-20.84v33.87c-1.45-.12-2.91-.24-4.37-.35v-21.97c0-3.37-1.39-6.21-4.32-8.53-2.84-2.42-6.36-3.63-10.76-3.63-2.93,0-5.51.35-7.83,1.04-.53.15-1.03.31-1.52.49-1.46.54-2.65,1.2-3.56,1.92v-2.84h-20.83v30.47c-1.35-.06-2.7-.12-4.05-.18v-13.67c0-5.6-2.32-9.82-7.06-12.66-4.56-3.01-10.26-4.57-17.04-4.57h-.35c-7.24.05-12.89,1.35-17.06,3.97-4.89,2.92-7.4,7.66-7.4,14.03v11.48c-5.38-.09-10.8-.14-16.26-.18v-16.12h11.19v-12.57h-11.19V2.84h-20.84v17.05h-9.29v12.57h9.29v16.12c-4.42.03-8.81.07-13.17.14v-11.44c0-6.54-2.25-11.37-6.63-14.21-3.7-2.49-9.22-3.79-16.62-3.79-.4,0-.81.01-1.21.02-6.82.13-12.19,1.32-16,3.43-5.17,2.93-7.67,7.49-7.67,13.78v13.51c-1.88.08-3.74.17-5.6.24v-30.37h-20.75v31.45c-2.42.13-4.83.28-7.23.44v-31.89h-20.82v33.35c-1.24.09-2.48.2-3.71.29v-17.02c0-5.6-2.41-9.82-7.06-12.66-4.65-3.01-10.33-4.57-17.13-4.57h-.27c-7.27.04-12.96,1.33-17.13,3.97-4.9,2.92-7.31,7.66-7.31,14.03v21.2c-1.62.19-3.23.4-4.83.6v-22.57c0-6.38-2.49-10.94-7.49-13.78-4.02-2.22-9.65-3.43-16.92-3.44h-.12c-7.41-.01-13.17,1.29-17.23,3.96-4.72,2.92-7.04,7.66-7.04,14.03v29.7c-21.54,4.35-38.99,9.28-51.33,14.72,20.27-5.71,45.92-10.72,75.72-14.88,11.11-1.57,22.81-3.01,35.01-4.31,6.09-.65,12.33-1.26,18.67-1.83,32.61-2.98,68.4-5.04,106.24-6.01,15.75-.39,31.85-.61,48.21-.61,17.32,0,34.34.24,50.98.69,18.15.49,35.83,1.23,52.89,2.2,13.48.78,26.57,1.69,39.23,2.74,10.28.85,20.29,1.79,29.96,2.82,44.93,4.81,82.91,11.35,110.71,19.19-12.33-5.44-29.78-10.37-51.31-14.72ZM79.3,56.13h-7.14v-19.45c0-1.39.33-2.42,1.02-3.1.68-.68,1.53-1.11,2.54-1.12h.05c1.21,0,2.06.44,2.67,1.12.61.68.86,1.71.86,3.1v19.45ZM133.02,55.39l-3.62.36-3.61.36v-19.43c0-1.39.34-2.42,1.03-3.1.69-.68,1.56-1.12,2.58-1.12,1.21,0,2.07.44,2.67,1.12.61.68.95,1.71.95,3.1v18.71ZM239.26,49.12l-3.62.09-3.61.1v-12.63c0-1.39.34-2.42,1.03-3.1.69-.68,1.55-1.12,2.58-1.12,1.21,0,2.07.44,2.68,1.12.59.68.94,1.71.94,3.1v12.44ZM338.44,49.4l-3.61-.11-3.62-.1v-12.51c0-1.39.43-2.42,1.12-3.1.69-.68,1.54-1.12,2.5-1.12,1.2,0,2.15.44,2.75,1.12.6.68.86,1.71.86,3.1v12.72ZM391.3,51.9l-3.58-.22-3.56-.22v-14.95c0-1.3.25-2.25.86-2.85.6-.59,1.52-.86,2.7-.86h.05c2.41,0,3.53,1.3,3.53,3.88v15.22Z"/>
        </g>
      </g>
    </g>
  </g>
</svg>