<svg width="144" height="144" viewBox="0 0 144 144" fill="none" xmlns="http://www.w3.org/2000/svg">
<path d="M12 56.5L66.24 15.82C68.3056 14.2708 69.3383 13.4963 70.4726 13.1977C71.4738 12.9341 72.5262 12.9341 73.5274 13.1977C74.6617 13.4963 75.6945 14.2708 77.76 15.82L132 56.5M24 47.5V106.3C24 113.021 24 116.381 25.3079 118.948C26.4584 121.206 28.2942 123.042 30.5521 124.192C33.1191 125.5 36.4794 125.5 43.2 125.5H100.8C107.521 125.5 110.881 125.5 113.448 124.192C115.706 123.042 117.542 121.206 118.692 118.948C120 116.381 120 113.021 120 106.3V47.5L83.52 20.14C79.3889 17.0417 77.3234 15.4925 75.0548 14.8953C73.0524 14.3682 70.9476 14.3682 68.9452 14.8953C66.6767 15.4925 64.6111 17.0417 60.48 20.14L24 47.5Z" stroke="white" stroke-width="5" stroke-linecap="round" stroke-linejoin="round"/>
<path d="M80.9074 60.5C88.5389 60.5 93.6667 67.7638 93.6667 74.54C93.6667 88.2631 72.3852 99.5 72 99.5C71.6148 99.5 50.3333 88.2631 50.3333 74.54C50.3333 67.7638 55.4611 60.5 63.0926 60.5C67.4741 60.5 70.3389 62.7181 72 64.6681C73.6611 62.7181 76.5259 60.5 80.9074 60.5Z" stroke="#5FE9D0" stroke-width="5" stroke-linecap="round" stroke-linejoin="round"/>
</svg>
